<mxfile host="www.draw.io" modified="2020-01-03T10:12:01.731Z" agent="Mozilla/5.0 (Macintosh; Intel Mac OS X 10_14_6) AppleWebKit/537.36 (KHTML, like Gecko) Chrome/79.0.3945.88 Safari/537.36" etag="97q88tYDmhWvjJddbn-Z" version="12.4.8" type="github">
  <diagram id="cbQ1-u9caUl4AdaA7CsI" name="Page-1">
    <mxGraphModel dx="786" dy="468" grid="1" gridSize="10" guides="1" tooltips="1" connect="1" arrows="1" fold="1" page="1" pageScale="1" pageWidth="827" pageHeight="1169" math="0" shadow="0">
      <root>
        <mxCell id="0"/>
        <mxCell id="1" parent="0"/>
        <mxCell id="G0f6KGmid0dRCtLHLZr6-1" value="oauth" style="rounded=0;whiteSpace=wrap;html=1;" parent="1" vertex="1">
          <mxGeometry x="560" y="350" width="120" height="60" as="geometry"/>
        </mxCell>
        <mxCell id="G0f6KGmid0dRCtLHLZr6-22" style="edgeStyle=orthogonalEdgeStyle;rounded=0;orthogonalLoop=1;jettySize=auto;html=1;exitX=0.5;exitY=1;exitDx=0;exitDy=0;entryX=0.5;entryY=0;entryDx=0;entryDy=0;" parent="1" source="G0f6KGmid0dRCtLHLZr6-2" target="G0f6KGmid0dRCtLHLZr6-3" edge="1">
          <mxGeometry relative="1" as="geometry"/>
        </mxCell>
        <mxCell id="G0f6KGmid0dRCtLHLZr6-23" style="edgeStyle=orthogonalEdgeStyle;rounded=0;orthogonalLoop=1;jettySize=auto;html=1;exitX=0.5;exitY=1;exitDx=0;exitDy=0;entryX=0.5;entryY=0;entryDx=0;entryDy=0;" parent="1" source="G0f6KGmid0dRCtLHLZr6-2" target="G0f6KGmid0dRCtLHLZr6-4" edge="1">
          <mxGeometry relative="1" as="geometry"/>
        </mxCell>
        <mxCell id="G0f6KGmid0dRCtLHLZr6-24" style="edgeStyle=orthogonalEdgeStyle;rounded=0;orthogonalLoop=1;jettySize=auto;html=1;exitX=0.5;exitY=1;exitDx=0;exitDy=0;entryX=0.5;entryY=0;entryDx=0;entryDy=0;" parent="1" source="G0f6KGmid0dRCtLHLZr6-2" target="G0f6KGmid0dRCtLHLZr6-8" edge="1">
          <mxGeometry relative="1" as="geometry"/>
        </mxCell>
        <mxCell id="G0f6KGmid0dRCtLHLZr6-25" style="edgeStyle=orthogonalEdgeStyle;rounded=0;orthogonalLoop=1;jettySize=auto;html=1;exitX=0.5;exitY=1;exitDx=0;exitDy=0;" parent="1" source="G0f6KGmid0dRCtLHLZr6-2" target="G0f6KGmid0dRCtLHLZr6-1" edge="1">
          <mxGeometry relative="1" as="geometry"/>
        </mxCell>
        <mxCell id="G0f6KGmid0dRCtLHLZr6-2" value="gateway" style="rounded=0;whiteSpace=wrap;html=1;" parent="1" vertex="1">
          <mxGeometry x="220" y="20" width="120" height="60" as="geometry"/>
        </mxCell>
        <mxCell id="G0f6KGmid0dRCtLHLZr6-3" value="cmdb" style="rounded=0;whiteSpace=wrap;html=1;" parent="1" vertex="1">
          <mxGeometry x="20" y="350" width="120" height="60" as="geometry"/>
        </mxCell>
        <mxCell id="YxDkBK0o4kyFfiGA_ycG-5" style="edgeStyle=orthogonalEdgeStyle;rounded=0;orthogonalLoop=1;jettySize=auto;html=1;exitX=0.5;exitY=1;exitDx=0;exitDy=0;entryX=0.5;entryY=0;entryDx=0;entryDy=0;" edge="1" parent="1" source="G0f6KGmid0dRCtLHLZr6-4" target="YxDkBK0o4kyFfiGA_ycG-1">
          <mxGeometry relative="1" as="geometry"/>
        </mxCell>
        <mxCell id="G0f6KGmid0dRCtLHLZr6-4" value="ansible" style="rounded=0;whiteSpace=wrap;html=1;" parent="1" vertex="1">
          <mxGeometry x="200" y="350" width="120" height="60" as="geometry"/>
        </mxCell>
        <mxCell id="YxDkBK0o4kyFfiGA_ycG-9" style="edgeStyle=orthogonalEdgeStyle;rounded=0;orthogonalLoop=1;jettySize=auto;html=1;exitX=0.5;exitY=1;exitDx=0;exitDy=0;entryX=0.5;entryY=0;entryDx=0;entryDy=0;" edge="1" parent="1" source="G0f6KGmid0dRCtLHLZr6-8" target="YxDkBK0o4kyFfiGA_ycG-8">
          <mxGeometry relative="1" as="geometry"/>
        </mxCell>
        <mxCell id="YxDkBK0o4kyFfiGA_ycG-12" style="edgeStyle=orthogonalEdgeStyle;rounded=0;orthogonalLoop=1;jettySize=auto;html=1;exitX=0.5;exitY=1;exitDx=0;exitDy=0;entryX=0.5;entryY=0;entryDx=0;entryDy=0;" edge="1" parent="1" source="G0f6KGmid0dRCtLHLZr6-8" target="YxDkBK0o4kyFfiGA_ycG-10">
          <mxGeometry relative="1" as="geometry"/>
        </mxCell>
        <mxCell id="G0f6KGmid0dRCtLHLZr6-8" value="monitor collector/&lt;br&gt;monitor alert" style="rounded=0;whiteSpace=wrap;html=1;" parent="1" vertex="1">
          <mxGeometry x="380" y="350" width="120" height="60" as="geometry"/>
        </mxCell>
        <mxCell id="G0f6KGmid0dRCtLHLZr6-20" value="consul" style="rounded=0;whiteSpace=wrap;html=1;" parent="1" vertex="1">
          <mxGeometry x="530" y="90" width="120" height="60" as="geometry"/>
        </mxCell>
        <mxCell id="G0f6KGmid0dRCtLHLZr6-31" value="" style="endArrow=none;dashed=1;html=1;entryX=0;entryY=0.5;entryDx=0;entryDy=0;exitX=1;exitY=0.5;exitDx=0;exitDy=0;" parent="1" source="G0f6KGmid0dRCtLHLZr6-2" target="G0f6KGmid0dRCtLHLZr6-20" edge="1">
          <mxGeometry width="50" height="50" relative="1" as="geometry">
            <mxPoint x="410" y="90" as="sourcePoint"/>
            <mxPoint x="460" y="40" as="targetPoint"/>
          </mxGeometry>
        </mxCell>
        <mxCell id="G0f6KGmid0dRCtLHLZr6-32" value="" style="endArrow=none;dashed=1;html=1;entryX=0;entryY=0.5;entryDx=0;entryDy=0;" parent="1" target="G0f6KGmid0dRCtLHLZr6-20" edge="1">
          <mxGeometry width="50" height="50" relative="1" as="geometry">
            <mxPoint x="80" y="340" as="sourcePoint"/>
            <mxPoint x="380" y="160" as="targetPoint"/>
          </mxGeometry>
        </mxCell>
        <mxCell id="G0f6KGmid0dRCtLHLZr6-33" value="" style="endArrow=none;dashed=1;html=1;entryX=0;entryY=0.5;entryDx=0;entryDy=0;exitX=0.5;exitY=0;exitDx=0;exitDy=0;" parent="1" source="G0f6KGmid0dRCtLHLZr6-4" target="G0f6KGmid0dRCtLHLZr6-20" edge="1">
          <mxGeometry width="50" height="50" relative="1" as="geometry">
            <mxPoint x="480" y="210" as="sourcePoint"/>
            <mxPoint x="530" y="160" as="targetPoint"/>
          </mxGeometry>
        </mxCell>
        <mxCell id="G0f6KGmid0dRCtLHLZr6-34" value="" style="endArrow=none;dashed=1;html=1;entryX=0.5;entryY=1;entryDx=0;entryDy=0;exitX=0.5;exitY=0;exitDx=0;exitDy=0;" parent="1" source="G0f6KGmid0dRCtLHLZr6-8" target="G0f6KGmid0dRCtLHLZr6-20" edge="1">
          <mxGeometry width="50" height="50" relative="1" as="geometry">
            <mxPoint x="500" y="290" as="sourcePoint"/>
            <mxPoint x="550" y="240" as="targetPoint"/>
          </mxGeometry>
        </mxCell>
        <mxCell id="G0f6KGmid0dRCtLHLZr6-35" value="" style="endArrow=none;dashed=1;html=1;exitX=0.5;exitY=1;exitDx=0;exitDy=0;" parent="1" source="G0f6KGmid0dRCtLHLZr6-20" edge="1">
          <mxGeometry width="50" height="50" relative="1" as="geometry">
            <mxPoint x="700" y="250" as="sourcePoint"/>
            <mxPoint x="620" y="340" as="targetPoint"/>
          </mxGeometry>
        </mxCell>
        <mxCell id="YxDkBK0o4kyFfiGA_ycG-6" style="edgeStyle=orthogonalEdgeStyle;rounded=0;orthogonalLoop=1;jettySize=auto;html=1;exitX=0.5;exitY=1;exitDx=0;exitDy=0;entryX=0.5;entryY=0;entryDx=0;entryDy=0;" edge="1" parent="1" source="YxDkBK0o4kyFfiGA_ycG-1" target="YxDkBK0o4kyFfiGA_ycG-7">
          <mxGeometry relative="1" as="geometry">
            <mxPoint x="260" y="590" as="targetPoint"/>
          </mxGeometry>
        </mxCell>
        <mxCell id="YxDkBK0o4kyFfiGA_ycG-1" value="ssh proxy" style="rounded=0;whiteSpace=wrap;html=1;" vertex="1" parent="1">
          <mxGeometry x="200" y="490" width="120" height="60" as="geometry"/>
        </mxCell>
        <mxCell id="YxDkBK0o4kyFfiGA_ycG-2" value="" style="endArrow=none;dashed=1;html=1;" edge="1" parent="1">
          <mxGeometry width="50" height="50" relative="1" as="geometry">
            <mxPoint x="160" y="590" as="sourcePoint"/>
            <mxPoint x="610" y="590" as="targetPoint"/>
          </mxGeometry>
        </mxCell>
        <mxCell id="YxDkBK0o4kyFfiGA_ycG-4" value="zone" style="text;html=1;align=center;verticalAlign=middle;resizable=0;points=[];labelBackgroundColor=#ffffff;" vertex="1" connectable="0" parent="YxDkBK0o4kyFfiGA_ycG-2">
          <mxGeometry x="-0.1" y="-2" relative="1" as="geometry">
            <mxPoint as="offset"/>
          </mxGeometry>
        </mxCell>
        <mxCell id="YxDkBK0o4kyFfiGA_ycG-7" value="host/&lt;br&gt;agent" style="rounded=0;whiteSpace=wrap;html=1;" vertex="1" parent="1">
          <mxGeometry x="290" y="670" width="120" height="60" as="geometry"/>
        </mxCell>
        <mxCell id="YxDkBK0o4kyFfiGA_ycG-8" value="tsdb" style="rounded=0;whiteSpace=wrap;html=1;" vertex="1" parent="1">
          <mxGeometry x="500" y="490" width="120" height="60" as="geometry"/>
        </mxCell>
        <mxCell id="YxDkBK0o4kyFfiGA_ycG-11" style="edgeStyle=orthogonalEdgeStyle;rounded=0;orthogonalLoop=1;jettySize=auto;html=1;exitX=0.5;exitY=1;exitDx=0;exitDy=0;entryX=0.5;entryY=0;entryDx=0;entryDy=0;" edge="1" parent="1" source="YxDkBK0o4kyFfiGA_ycG-10" target="YxDkBK0o4kyFfiGA_ycG-7">
          <mxGeometry relative="1" as="geometry"/>
        </mxCell>
        <mxCell id="YxDkBK0o4kyFfiGA_ycG-10" value="proxy" style="rounded=0;whiteSpace=wrap;html=1;" vertex="1" parent="1">
          <mxGeometry x="353" y="490" width="120" height="60" as="geometry"/>
        </mxCell>
      </root>
    </mxGraphModel>
  </diagram>
</mxfile>
